<svg
  xmlns="http://www.w3.org/2000/svg"
  viewBox="0 0 24 24"
  fill="#F4B400"
  width="64"
  height="64"
>
  <path d="M19.14 12.94c.04-.31.06-.63.06-.94s-.02-.63-.06-.94l2.03-1.58c.18-.14.23-.41.1-.61l-1.92-3.32c-.12-.21-.39-.28-.61-.2l-2.39.96a6.988 6.988 0 0 0-1.62-.94l-.36-2.54A.488.488 0 0 0 14 2h-4c-.24 0-.44.17-.48.4l-.36 2.54c-.59.23-1.13.54-1.62.94l-2.39-.96a.49.49 0 0 0-.61.2L2.73 8.87c-.13.2-.08.47.1.61l2.03 1.58c-.04.31-.06.63-.06.94s.02.63.06.94L2.83 14.9a.495.495 0 0 0-.1.61l1.92 3.32c.12.21.39.28.61.2l2.39-.96c.49.39 1.03.71 1.62.94l.36 2.54c.04.23.24.4.48.4h4c.24 0 .44-.17.48-.4l.36-2.54c.59-.23 1.13-.54 1.62-.94l2.39.96c.22.09.49.01.61-.2l1.92-3.32a.495.495 0 0 0-.1-.61l-2.03-1.58zM12 15.5c-1.93 0-3.5-1.57-3.5-3.5S10.07 8.5 12 8.5s3.5 1.57 3.5 3.5-1.57 3.5-3.5 3.5z"/>
</svg>
