<?xml version="1.0" encoding="UTF-8"?>
<svg id="Camada_2" data-name="Camada 2" xmlns="http://www.w3.org/2000/svg" viewBox="0 0 2149.07 1066.97">
  <defs>
    <style>
      .cls-1, .cls-2, .cls-3 {
        fill: #091b89;
      }

      .cls-4, .cls-5, .cls-6, .cls-7 {
        fill: #fff;
      }

      .cls-4, .cls-5, .cls-2 {
        stroke-linecap: round;
        stroke-linejoin: round;
      }

      .cls-4, .cls-5, .cls-3 {
        stroke: #fff;
      }

      .cls-4, .cls-2 {
        stroke-width: 5.62px;
      }

      .cls-5 {
        stroke-width: 4.42px;
      }

      .cls-8 {
        fill: #c1272d;
      }

      .cls-2 {
        stroke: #091b89;
      }

      .cls-3 {
        stroke-miterlimit: 10;
        stroke-width: 1.05px;
      }

      .cls-7 {
        font-family: Prompt-Medium, Prompt;
        font-size: 62.79px;
        font-weight: 500;
      }
    </style>
  </defs>
  <g id="Camada_1-2" data-name="Camada 1">
    <path class="cls-8" d="M440.29,1059.47l296.86-161.37c24.42-13.28,44.76-32.2,58.66-55.06,10.19-16.75,19.39-38.07,22.7-63.34.07-.55.11-1.1.11-1.66V66.84c0-5.48-6.52-9.2-12.04-11.17C501.46-53.2,76.41,26.3,8.49,54.36,3.33,56.49,0,61.22,0,66.45v711.2c0,.55.03,1.11.11,1.66,3.3,25.28,12.51,46.59,22.7,63.34,13.9,22.85,34.24,41.78,58.66,55.06l296.86,161.37c19.2,10.43,42.95,10.54,62.25.27"/>
    <path class="cls-1" d="M440.29,989.04l296.86-142.3c24.42-11.71,44.76-28.4,58.66-48.55,10.19-14.77,19.39-33.57,22.7-55.86.07-.48.11-.97.11-1.46V113.74c0-4.83-6.52-8.12-12.04-9.85C501.46,7.89,76.41,77.99,8.49,102.73,3.33,104.61,0,108.78,0,113.39v627.14c0,.49.03.98.11,1.46,3.3,22.29,12.51,41.08,22.7,55.86,13.9,20.15,34.24,36.84,58.66,48.55l296.86,142.3c19.2,9.2,42.95,9.29,62.25.24"/>
    <path class="cls-4" d="M641.66,636.78c-24.2,39.07-44.33,52.19-44.33,52.19l-74.64-44.66,14.41-23.37c19.19,1.1,26.97-9.24,36.89-25.25,9.92-16.01,16.28-28.96,5.81-44.02l14.56-23.62,72.9,45.01s-4.97,30.4-25.6,63.71ZM595.43,608.97c-4.04,6.51-2.03,15.07,4.49,19.1,6.51,4.04,15.07,2.03,19.1-4.49,4.04-6.51,2.03-15.07-4.49-19.1-6.51-4.04-15.07-2.03-19.1,4.49Z"/>
    <path class="cls-4" d="M693.22,588.61s-4.97,30.4-25.6,63.71c-24.2,39.07-44.33,52.19-44.33,52.19l-11.61-6.4s20.13-13.13,44.33-52.19c20.63-33.31,26.44-65.05,26.44-65.05l10.78,7.75Z"/>
    <circle class="cls-2" cx="607.22" cy="616.28" r="5.91"/>
    <path class="cls-6" d="M409.3,148.13c-192.52,0-348.59,156.07-348.59,348.59s156.07,348.59,348.59,348.59,348.59-156.07,348.59-348.59-156.07-348.59-348.59-348.59ZM79.31,496.72c0-182.25,147.74-329.99,329.99-329.99s329.99,147.74,329.99,329.99c0,89.94-163.12,177.57-325.95,178.73-167.11,1.2-334.04-86.43-334.04-178.73Z"/>
    <g>
      <path class="cls-6" d="M29.03,333.35l15.8-32.37c4-8.19,5.28-10.15,7.95-12.15,4.23-3.2,8.99-2.84,17.23,1.18,8.3,4.05,11.9,7.62,12.42,12.19.36,3.24-.58,6.32-4.17,13.68l-10.1,20.69,10.72,5.23-6.26,12.82-43.59-21.28ZM66.71,312.69c2.57-5.27,2.14-7.36-1.98-9.37-5.23-2.55-7.02-1.86-9.72,3.66l-9.14,18.72,11.7,5.71,9.14-18.72Z"/>
      <path class="cls-6" d="M90.84,229.26l8.95,6.37-22.07,31.01,6.81,4.85,20.8-29.23,7.82,5.57-20.8,29.23,6.99,4.98,22.35-31.42,8.95,6.37-30.54,42.93-39.52-28.12,30.25-42.52Z"/>
      <path class="cls-6" d="M162.47,198.64c4.94,5.04,6.48,6.89,7.32,9.13,1.63,4.23.32,8.31-4.52,13.86-1.84,2.25-5.79,6.29-12.44,12.93-9.59,9.58-13.16,12.21-17.65,13.1-5.46,1.13-10-1.52-20.18-11.71-9.04-9.06-11.28-13.3-9.84-18.85,1.2-4.79,3.94-8.45,13.28-17.78,12.44-12.42,15.4-14.86,19.69-16.26,4.09-1.3,8.37.48,13.4,5.53l1.13,1.13-9.69,9.68c-3.95-3.56-5.01-3.12-13.8,5.66-8.3,8.28-9.59,9.99-9.71,12.37-.07,2.33,1.07,3.97,6.62,9.53,8.22,8.23,9.59,8.1,19.33-1.63,7.55-7.53,8.59-8.68,9.38-10.7.83-2.06.3-3.69-2.16-6.17l9.84-9.83ZM164.52,232.97l1.44,12.44-5.85,2.14-4.98-11.98,9.39-2.59Z"/>
      <path class="cls-6" d="M169.16,156.27l15.8-10.92,48.78,25.27-12.9,8.91-8.75-4.47-24.99,17.26,1.2,9.69-13.36,9.23-5.78-54.97ZM202.22,169.59l-19.36-10.14,2.74,21.62,16.62-11.48Z"/>
      <path class="cls-6" d="M240.92,150.99c1.5,2.99,2.15,3.58,3.97,3.48,1.15-.04,4.93-1.43,9.05-3.29,15.13-6.82,16.72-8.1,15.08-11.75-.81-1.79-2.24-2.74-3.8-2.59q-1.63.17-8.42,3.16l-11.85,5.34c-7.92,3.57-11.41,4.59-14.84,4.38-3.84-.26-6.84-3.14-9.56-9.17-3.59-7.96-2.92-12.32,2.57-16.64,3.06-2.5,7.93-5.09,17.33-9.33,15.06-6.79,18.72-7.97,22.74-7.3,3.89.72,6.08,3,9.07,9.63l-12.75,5.75c-1.73-3.85-3.26-3.8-11.69,0-4.18,1.89-9.73,4.55-11.73,5.61-3.36,1.83-4.1,3.28-2.96,5.8.84,1.86,2.28,2.64,4.35,2.27.86-.15,1.15-.2,5.43-2.05l12.17-5.49c1.16-.52,7.04-2.94,9.29-3.79,8.36-3.29,13.25-1.03,17.25,7.85,3.68,8.15,2.97,12.78-2.71,17.02-2.89,2.18-9.08,5.45-18.42,9.66-14.87,6.71-18.3,7.86-23,7.58-3.24-.14-6.11-2.91-8.48-8.14-.18-.4-.57-1.26-.92-2.22l12.81-5.78Z"/>
      <path class="cls-6" d="M356.39,81.17l2.11,10.78-37.36,7.32,1.61,8.21,35.21-6.9,1.84,9.42-35.21,6.9,1.65,8.42,37.84-7.41,2.11,10.78-51.7,10.13-9.32-47.6,51.22-10.04Z"/>
      <path class="cls-6" d="M407.14,111.39c.03,3.35.35,4.16,2.03,4.87,1.04.47,5.06.9,9.57,1.05,16.58.56,18.58.12,18.71-3.88.07-1.96-.8-3.45-2.27-4.01q-1.54-.56-8.94-.88l-12.99-.44c-8.68-.29-12.26-.92-15.24-2.62-3.33-1.93-4.75-5.84-4.53-12.45.29-8.72,2.82-12.35,9.65-13.79,3.85-.89,9.36-1.07,19.67-.72,16.51.56,20.31,1.12,23.62,3.49,3.17,2.36,4.13,5.38,3.88,12.65l-13.97-.47c.14-4.22-1.25-4.84-10.5-5.16-4.59-.15-10.73-.22-13-.15-3.82.16-5.12,1.14-5.22,3.9-.07,2.04.88,3.38,2.91,3.95.84.25,1.12.33,5.77.56l13.34.45c1.27.04,7.61.48,10.01.7,8.95.74,12.34,4.93,12.01,14.67-.3,8.94-2.97,12.78-9.94,14.07-3.56.68-10.56.88-20.79.54-16.3-.55-19.89-1.03-23.98-3.35-2.84-1.55-4.2-5.31-4.01-11.05.01-.44.05-1.38.15-2.4l14.04.47Z"/>
      <path class="cls-6" d="M517.16,92.12l-2.18,10.76-37.31-7.56-1.66,8.2,35.16,7.12-1.91,9.41-35.16-7.12-1.7,8.41,37.79,7.66-2.18,10.76-51.63-10.46,9.63-47.54,51.15,10.36Z"/>
      <path class="cls-6" d="M530.24,95.71l37.85,14.71c7.77,3.02,10.93,5.03,12.58,8.17,1.75,3.1,1.43,7.42-.94,13.52-3.27,8.4-6.53,10.96-12.63,10.07,5.09,3.07,5.82,6.08,3.02,12.88l-2.77,7.12-13.56-5.27,2.19-5.63c1.83-4.91.91-6.43-5.13-8.63l-20.47-7.96-4.43,11.39-13.3-5.17,17.58-45.21ZM555.55,131.77c6.45,2.51,8.02,2.18,9.76-2.29,1.13-2.91,1.34-4.24.86-5.52-.57-1.47-1.61-2.11-5.62-3.67l-21.33-8.29-4.53,11.66,20.87,8.11Z"/>
      <path class="cls-6" d="M594.03,120.95l13.47,8.29-3.38,40.95,35.38-21.27,13.59,8.36-47.6,27.67-15.46-9.51,3.99-54.49Z"/>
      <path class="cls-6" d="M659.15,163.58l11.2,8.95-30.27,37.9-11.2-8.95,30.27-37.9Z"/>
      <path class="cls-6" d="M700.02,242.71c-5.06,4.91-6.92,6.45-9.16,7.28-4.24,1.61-8.32.28-13.84-4.58-2.24-1.85-6.27-5.82-12.88-12.49-9.54-9.64-12.15-13.21-13.03-17.71-1.11-5.46,1.57-10,11.8-20.13,9.1-9,13.35-11.22,18.89-9.76,4.79,1.22,8.43,3.97,17.73,13.36,12.37,12.5,14.8,15.46,16.18,19.76,1.29,4.09-.52,8.36-5.58,13.38l-1.14,1.13-9.64-9.74c3.57-3.94,3.14-5-5.61-13.83-8.25-8.33-9.94-9.63-12.32-9.76-2.33-.08-3.97,1.05-9.55,6.58-8.27,8.19-8.14,9.55,1.54,19.34,7.5,7.58,8.65,8.63,10.66,9.42,2.06.84,3.69.32,6.17-2.14l9.79,9.89ZM665.68,244.61l-12.44,1.39-2.11-5.86,12.01-4.93,2.55,9.4Z"/>
      <path class="cls-6" d="M759.38,274.96c2.94,6.79,1.74,11.88-4.14,17.07-1.47,1.34-4.64,3.66-9.51,6.97-9.69,6.58-14.27,8.24-19.36,6.83-3.63-.95-6.82-3.56-10.91-9.07-1.55-2.02-5.14-7.18-7.72-10.98-6.31-9.29-9.34-14.14-10.45-16.8-2.15-4.85-2.18-8.51-.22-11.97,1.92-3.52,4.63-5.87,13.41-11.84,6.74-4.58,8.5-5.6,11.69-6.74,5.03-1.79,8.86-1.07,13.16,2.42,3.19,2.62,5.85,6.02,12.83,16.3,7.62,11.21,9.84,14.74,11.23,17.81ZM728.97,253.11c-2.34-.72-4.64.16-10.41,4.08-5.9,4-7.74,5.94-8.02,8.26-.25,2.48.82,4.57,6.89,13.5,6.95,10.22,8.73,12.08,11.57,12.12,2.2.13,4.44-.97,9.8-4.6,10.11-6.86,10.11-7.12.19-21.72-5.91-8.7-7.84-10.89-10.02-11.64Z"/>
      <path class="cls-6" d="M748.18,323.13c-3.01,1.47-3.6,2.12-3.51,3.93.03,1.15,1.38,4.95,3.2,9.08,6.68,15.19,7.94,16.8,11.6,15.19,1.8-.79,2.76-2.22,2.63-3.78q-.16-1.63-3.08-8.44l-5.23-11.9c-3.49-7.95-4.48-11.45-4.23-14.88.3-3.83,3.2-6.81,9.26-9.47,7.99-3.51,12.35-2.8,16.61,2.73,2.47,3.08,5.02,7.98,9.16,17.42,6.65,15.13,7.78,18.8,7.08,22.81-.76,3.88-3.06,6.05-9.72,8.98l-5.63-12.8c3.86-1.7,3.83-3.22.1-11.69-1.85-4.2-4.45-9.77-5.49-11.78-1.8-3.37-3.24-4.13-5.77-3.02-1.86.82-2.66,2.25-2.31,4.33.14.86.19,1.15,2,5.45l5.37,12.22c.51,1.16,2.87,7.07,3.7,9.33,3.21,8.39.9,13.26-8.02,17.18-8.19,3.6-12.81,2.85-16.99-2.87-2.15-2.91-5.37-9.14-9.48-18.51-6.56-14.93-7.68-18.38-7.36-23.07.17-3.24,2.97-6.08,8.22-8.4.4-.18,1.26-.56,2.23-.9l5.65,12.87Z"/>
    </g>
    <g>
      <path class="cls-8" d="M239.28,694.42h42.69c11.15,0,19.87,2.81,26.17,8.43,6.3,5.62,9.45,13.69,9.45,24.2,0,7.07-1.54,13.1-4.62,18.08-3.08,4.99-7.43,8.7-13.05,11.15l16.86,33.18h-24.75l-15.09-29.78h-13.6v29.78h-24.07v-95.04ZM277.76,739.43c4.8,0,8.52-.93,11.15-2.79,2.63-1.86,3.94-5.05,3.94-9.59s-1.29-7.95-3.87-9.72c-2.58-1.77-6.32-2.65-11.22-2.65h-14.41v24.75h14.41Z"/>
      <path class="cls-8" d="M326.84,694.42h67.44v20.26h-43.37v17.81h31.68v18.9h-31.68v17.81h43.37v20.26h-67.44v-95.04Z"/>
      <path class="cls-8" d="M423.31,785.52c-7.84-3.99-13.89-9.72-18.15-17.2-4.26-7.48-6.39-16.25-6.39-26.31s2.13-18.83,6.39-26.31c4.26-7.48,10.31-13.23,18.15-17.27,7.84-4.03,16.93-6.05,27.26-6.05,6.8,0,12.87.68,18.22,2.04,5.35,1.36,10.29,3.49,14.82,6.39v22.84c-3.99-3.17-8.5-5.48-13.53-6.93-5.03-1.45-10.81-2.18-17.33-2.18-9.34,0-16.54,2.43-21.62,7.27-5.08,4.85-7.61,11.58-7.61,20.19s2.56,15.36,7.68,20.26c5.12,4.89,12.3,7.34,21.55,7.34,6.53,0,12.37-.77,17.54-2.31,5.17-1.54,9.97-3.99,14.41-7.34v22.71c-8.61,5.89-19.99,8.84-34.13,8.84-10.33,0-19.42-1.99-27.26-5.98Z"/>
      <path class="cls-8" d="M493.94,694.42h24.07v36.71h37.25v-36.71h24.07v95.04h-24.07v-38.34h-37.25v38.34h-24.07v-95.04Z"/>
    </g>
    <text class="cls-7" transform="translate(172.87 851.46) rotate(31.03) scale(.97 1)"><tspan x="0" y="0">C</tspan></text>
    <text class="cls-7" transform="translate(224.34 881.12) rotate(22.4) scale(.97 1)"><tspan x="0" y="0">A</tspan></text>
    <text class="cls-7" transform="translate(283.24 904.13) rotate(13.31) scale(.97 1)"><tspan x="0" y="0">M</tspan></text>
    <text class="cls-7" transform="translate(349.5 917.7) rotate(6.53) scale(.97 1)"><tspan x="0" y="0">I</tspan></text>
    <text class="cls-7" transform="translate(380.42 920.99) rotate(.88) scale(.97 1)"><tspan x="0" y="0">N</tspan></text>
    <text class="cls-7" transform="translate(440.53 920.49) rotate(-7.53) scale(.97 1)"><tspan x="0" y="0">H</tspan></text>
    <text class="cls-7" transform="translate(501.23 911.33) rotate(-16.41) scale(.97 1)"><tspan x="0" y="0">Õ</tspan></text>
    <text class="cls-7" transform="translate(565.71 890.4) rotate(-24.78) scale(.97 1)"><tspan x="0" y="0">E</tspan></text>
    <text class="cls-7" transform="translate(611.92 867.89) rotate(-32.06) scale(.97 1)"><tspan x="0" y="0">S</tspan></text>
    <path class="cls-5" d="M384.36,292.94s7.11,50.85,7.21,67.85c.11,19.01-7.21,75.94-7.21,75.94h41.27s-8.48-56.92-8.36-75.94c.11-17,8.36-67.85,8.36-67.85h-41.27Z"/>
    <path class="cls-3" d="M396.47,296.6s2.9,49.56,2.94,66.12c.04,18.53-2.94,74.01-2.94,74.01h16.82s-3.45-55.47-3.4-74.01c.05-16.57,3.4-66.12,3.4-66.12h-16.82Z"/>
    <path class="cls-4" d="M405.26,215.85c-45.96,0-67.71,10.2-67.71,10.2l-1.35,86.97,27.45.06c9.17-16.89,22.06-18.07,40.9-18.07s33.19,1.41,40.48,18.24l27.75.06.12-85.68s-28.46-11.78-67.64-11.78ZM404.55,269.8c-7.66,0-13.88-6.21-13.88-13.88s6.21-13.88,13.88-13.88,13.88,6.21,13.88,13.88-6.21,13.88-13.88,13.88Z"/>
    <path class="cls-4" d="M473.36,197.39s-28.46-11.78-67.64-11.78c-45.96,0-67.71,10.2-67.71,10.2l-.67,13.24s21.76-10.2,67.71-10.2c39.18,0,69.23,11.78,69.23,11.78l-.91-13.24Z"/>
    <circle class="cls-2" cx="404.55" cy="255.92" r="5.91"/>
    <path class="cls-5" d="M244.52,611.97s39.49-32.83,53.88-41.86c16.11-10.1,68.36-33.86,68.36-33.86l-21.74-35.09s-43.92,37.18-60.16,47.1c-14.51,8.86-62.08,28.63-62.08,28.63l21.74,35.09Z"/>
    <path class="cls-3" d="M241.25,599.75s40.61-28.56,54.66-37.32c15.73-9.8,64.46-36.48,64.46-36.48l-8.86-14.3s-45.34,32.15-61.12,41.87c-14.11,8.69-58,31.93-58,31.93l8.86,14.3Z"/>
    <path class="cls-4" d="M167.97,634.8c24.2,39.07,44.33,52.19,44.33,52.19l74.64-44.66-14.41-23.37c-19.19,1.1-26.97-9.24-36.89-25.25-9.92-16.01-16.28-28.96-5.81-44.02l-14.56-23.62-72.9,45.01s4.97,30.4,25.6,63.71ZM214.21,606.99c4.04,6.51,2.03,15.07-4.49,19.1s-15.07,2.03-19.1-4.49c-4.04-6.51-2.03-15.07,4.49-19.1,6.51-4.04,15.07-2.03,19.1,4.49Z"/>
    <path class="cls-4" d="M116.42,586.62s4.97,30.4,25.6,63.71c24.2,39.07,44.33,52.19,44.33,52.19l11.61-6.4s-20.13-13.13-44.33-52.19c-20.63-33.31-26.44-65.05-26.44-65.05l-10.78,7.75Z"/>
    <circle class="cls-2" cx="202.42" cy="614.3" r="5.91"/>
    <path class="cls-5" d="M565.11,613.95s-39.49-32.83-53.88-41.86c-16.11-10.1-68.36-33.86-68.36-33.86l21.74-35.09s43.92,37.18,60.16,47.1c14.51,8.86,62.08,28.63,62.08,28.63l-21.74,35.09Z"/>
    <path class="cls-3" d="M568.38,601.73s-40.61-28.56-54.66-37.32c-15.73-9.8-64.46-36.48-64.46-36.48l8.86-14.3s45.34,32.15,61.12,41.87c14.11,8.69,58,31.93,58,31.93l-8.86,14.3Z"/>
    <g>
      <path class="cls-6" d="M375.94,548.4c-2.55,0-4.93-1.37-6.2-3.58l-29.18-50.54c-1.27-2.21-1.27-4.95,0-7.16l29.18-50.54c1.28-2.21,3.65-3.58,6.2-3.58h58.36c2.55,0,4.93,1.37,6.2,3.58l29.18,50.54c1.27,2.21,1.27,4.95,0,7.16l-29.18,50.54c-1.28,2.21-3.65,3.58-6.2,3.58h-58.36ZM404.99,455.67c-19.31,0-35.02,15.71-35.02,35.02s15.71,35.02,35.02,35.02,35.02-15.71,35.02-35.02-15.71-35.02-35.02-35.02Z"/>
      <path class="cls-6" d="M434.31,435.91c1.51,0,2.92.81,3.67,2.12l29.18,50.54c.76,1.31.76,2.93,0,4.24l-29.18,50.54c-.76,1.31-2.16,2.12-3.67,2.12h-58.36c-1.51,0-2.92-.81-3.67-2.12l-29.18-50.54c-.76-1.31-.76-2.93,0-4.24l29.18-50.54c.76-1.31,2.16-2.12,3.67-2.12h58.36M404.99,528.63c20.92,0,37.94-17.02,37.94-37.94s-17.02-37.94-37.94-37.94-37.94,17.02-37.94,37.94,17.02,37.94,37.94,37.94M434.31,430.07h-58.36c-3.6,0-6.93,1.92-8.73,5.04l-29.18,50.54c-1.8,3.12-1.8,6.96,0,10.08l29.18,50.54c1.8,3.12,5.13,5.04,8.73,5.04h58.36c3.6,0,6.93-1.92,8.73-5.04l29.18-50.54c1.8-3.12,1.8-6.96,0-10.08l-29.18-50.54c-1.8-3.12-5.13-5.04-8.73-5.04h0ZM404.99,522.79c-17.73,0-32.1-14.37-32.1-32.1s14.37-32.1,32.1-32.1,32.1,14.37,32.1,32.1-14.37,32.1-32.1,32.1h0Z"/>
    </g>
    <g>
      <g>
        <path class="cls-8" d="M1007.34,166.87h143.35c37.43,0,66.72,9.44,87.88,28.31,21.15,18.87,31.73,45.96,31.73,81.26,0,23.74-5.18,43.98-15.52,60.72-10.35,16.74-24.96,29.22-43.83,37.43l56.61,111.39h-83.09l-50.67-99.98h-45.65v99.98h-80.8V166.87ZM1136.54,317.97c16.13,0,28.6-3.12,37.43-9.36,8.83-6.23,13.24-16.96,13.24-32.18s-4.34-26.7-13.01-32.64c-8.68-5.94-21.23-8.9-37.66-8.9h-48.39v83.09h48.39Z"/>
        <path class="cls-8" d="M1301.33,166.87h226.43v68.02h-145.63v59.8h106.37v63.46h-106.37v59.8h145.63v68.02h-226.43V166.87Z"/>
        <path class="cls-8" d="M1625.23,472.73c-26.33-13.39-46.64-32.64-60.95-57.75-14.31-25.11-21.46-54.55-21.46-88.34s7.15-63.23,21.46-88.34c14.3-25.11,34.62-44.43,60.95-57.98,26.32-13.54,56.84-20.31,91.53-20.31,22.83,0,43.21,2.28,61.17,6.85,17.95,4.56,34.54,11.72,49.76,21.46v76.7c-13.4-10.65-28.53-18.41-45.42-23.28-16.89-4.86-36.29-7.3-58.2-7.3-31.35,0-55.54,8.15-72.59,24.43-17.05,16.28-25.56,38.88-25.56,67.79s8.6,51.59,25.79,68.02c17.19,16.43,41.31,24.65,72.36,24.65,21.91,0,41.54-2.58,58.89-7.76,17.35-5.17,33.48-13.39,48.39-24.65v76.24c-28.92,19.79-67.11,29.67-114.59,29.67-34.69,0-65.21-6.7-91.53-20.09Z"/>
        <path class="cls-8" d="M1862.38,166.87h80.8v123.26h125.08v-123.26h80.8v319.1h-80.8v-128.74h-125.08v128.74h-80.8V166.87Z"/>
      </g>
      <g>
        <path class="cls-1" d="M1038.87,645.09c-8.85-4.62-15.67-11.26-20.48-19.92-4.81-8.66-7.21-18.81-7.21-30.47s2.4-21.81,7.21-30.47c4.81-8.66,11.63-15.32,20.48-20,8.84-4.67,19.1-7.01,30.76-7.01,7.67,0,14.52.79,20.55,2.36,6.03,1.57,11.61,4.04,16.72,7.4v26.45c-4.5-3.67-9.59-6.35-15.26-8.03-5.68-1.68-12.19-2.52-19.56-2.52-10.53,0-18.66,2.81-24.39,8.42-5.73,5.62-8.59,13.41-8.59,23.38s2.89,17.79,8.67,23.46c5.78,5.67,13.88,8.5,24.31,8.5,7.36,0,13.96-.89,19.79-2.68,5.83-1.78,11.25-4.62,16.26-8.5v26.29c-9.72,6.82-22.55,10.23-38.5,10.23-11.66,0-21.91-2.31-30.76-6.93Z"/>
        <path class="cls-1" d="M1185.59,539.6h26.69l42.8,110.05h-27.76l-8.59-22.67h-39.58l-8.59,22.67h-27.92l42.95-110.05ZM1211.97,605.57l-13.04-37-13.19,37h26.23Z"/>
        <path class="cls-1" d="M1292.66,539.6h26.08l30.99,68.17,31.14-68.17h25.92v110.05h-25.31v-55.26l-25.62,55.26h-12.27l-25.46-55.26v55.26h-25.46v-110.05Z"/>
        <path class="cls-1" d="M1451.27,539.6h27.15v110.05h-27.15v-110.05Z"/>
        <path class="cls-1" d="M1522.9,539.6h26.84l39.42,65.5v-65.5h27.15v110.05h-26.69l-39.58-65.66v65.66h-27.15v-110.05Z"/>
        <path class="cls-1" d="M1660.8,539.6h27.15v42.51h42.03v-42.51h27.15v110.05h-27.15v-44.4h-42.03v44.4h-27.15v-110.05Z"/>
        <path class="cls-1" d="M1826.85,644.77c-8.74-4.83-15.65-11.57-20.71-20.23-5.06-8.66-7.59-18.6-7.59-29.84s2.53-21.2,7.59-29.92c5.06-8.71,11.96-15.48,20.71-20.31,8.74-4.83,18.53-7.24,29.38-7.24s20.48,2.42,29.22,7.24c8.74,4.83,15.62,11.6,20.63,20.31,5.01,8.71,7.52,18.68,7.52,29.92s-2.51,21.18-7.52,29.84c-5.01,8.66-11.89,15.4-20.63,20.23-8.74,4.83-18.48,7.24-29.22,7.24s-20.63-2.41-29.38-7.24ZM1824.94,512.68c3.58-4.41,8.95-6.61,16.11-6.61,2.25,0,4.5.31,6.75.94,2.25.63,5.16,1.63,8.74,2.99,3.07,1.26,5.73,2.23,7.98,2.91,2.25.68,4.5,1.02,6.75,1.02,6.44,0,11.81-2.62,16.11-7.87v20.15c-3.48,4.31-8.85,6.46-16.11,6.46-2.56,0-5.06-.34-7.52-1.02-2.45-.68-5.32-1.71-8.59-3.07-3.27-1.26-5.91-2.2-7.9-2.83s-4.07-.95-6.21-.95c-6.34,0-11.71,2.68-16.11,8.03v-20.15ZM1871.11,622.1c4.5-2.52,8.08-6.14,10.74-10.86,2.66-4.72,3.99-10.23,3.99-16.53s-1.3-11.78-3.91-16.45c-2.61-4.67-6.16-8.29-10.66-10.86-4.5-2.57-9.51-3.86-15.03-3.86s-10.69,1.29-15.19,3.86c-4.5,2.57-8.05,6.19-10.66,10.86-2.61,4.67-3.91,10.16-3.91,16.45s1.3,11.81,3.91,16.53c2.61,4.72,6.19,8.34,10.74,10.86,4.55,2.52,9.59,3.78,15.11,3.78s10.38-1.26,14.88-3.78Z"/>
        <path class="cls-1" d="M1955.01,539.6h76.08v23.46h-48.93v20.63h35.74v21.88h-35.74v20.62h48.93v23.46h-76.08v-110.05Z"/>
        <path class="cls-1" d="M2085.86,650.05c-6.65-1.31-12.12-3.12-16.41-5.43v-25.03c5.52,2.94,11.27,5.14,17.26,6.61,5.98,1.47,11.68,2.21,17.1,2.21,5.01,0,8.79-.79,11.35-2.36,2.55-1.57,3.83-3.83,3.83-6.77,0-2.2-.69-4.12-2.07-5.75-1.38-1.63-3.4-3.12-6.06-4.49-2.66-1.36-6.8-3.25-12.42-5.67-9.92-4.3-17.13-9.08-21.63-14.33-4.5-5.25-6.75-11.7-6.75-19.37,0-6.3,1.71-11.91,5.14-16.85,3.43-4.93,8.21-8.76,14.34-11.49,6.14-2.73,13.19-4.09,21.17-4.09,6.54,0,12.37.53,17.49,1.57,5.11,1.05,10.02,2.73,14.73,5.04v24.4c-9-4.83-18.05-7.24-27.15-7.24-4.91,0-8.82.81-11.73,2.44-2.92,1.63-4.37,3.96-4.37,7.01s1.48,5.51,4.45,7.4c2.96,1.89,8.44,4.46,16.41,7.71,7.26,3.05,12.91,6.04,16.95,8.97,4.04,2.94,6.98,6.35,8.82,10.23,1.84,3.88,2.76,8.82,2.76,14.8,0,10.18-3.6,18.13-10.81,23.85-7.21,5.72-17.97,8.58-32.29,8.58-6.75,0-13.45-.66-20.09-1.97Z"/>
      </g>
      <g>
        <path class="cls-8" d="M1012.15,682.75h32.88c8.68,0,15.62,2.27,20.82,6.81,5.19,4.54,7.79,10.89,7.79,19.05s-2.58,14.85-7.74,19.43c-5.16,4.58-12.12,6.87-20.87,6.87h-13.99v22.25h-18.9v-74.41ZM1042.04,719.05c3.77,0,6.74-.78,8.91-2.34,2.17-1.56,3.26-4.26,3.26-8.09s-1.07-6.46-3.2-7.88c-2.14-1.42-5.12-2.13-8.97-2.13h-11v20.44h11Z"/>
        <path class="cls-8" d="M1090.94,682.75h52.96v15.86h-34.06v13.95h24.88v14.8h-24.88v13.95h34.06v15.86h-52.96v-74.41Z"/>
        <path class="cls-8" d="M1209.02,758.12l-1.6,3.94c3.13.5,5.5,1.54,7.1,3.14s2.4,3.92,2.4,6.97c0,3.76-1.53,6.6-4.59,8.52-3.06,1.92-7.22,2.87-12.49,2.87-2.42,0-4.75-.14-6.99-.43-2.24-.28-3.93-.64-5.07-1.06v-9.05c1.85.99,4.02,1.49,6.51,1.49,1.71,0,3.02-.32,3.95-.96.92-.64,1.39-1.53,1.39-2.66,0-1.35-.8-2.4-2.4-3.14s-4.29-1.12-8.06-1.12l3.2-8.3c-6.9-.85-12.9-2.94-17.99-6.28-5.09-3.33-9-7.73-11.74-13.2-2.74-5.46-4.11-11.74-4.11-18.84,0-7.88,1.67-14.74,5.02-20.6,3.34-5.85,8.1-10.36,14.25-13.52,6.16-3.16,13.29-4.74,21.41-4.74,5.34,0,10.11.53,14.31,1.6,4.2,1.06,8.08,2.73,11.64,5v17.88c-3.13-2.48-6.67-4.29-10.62-5.43-3.95-1.13-8.49-1.7-13.61-1.7-7.33,0-12.99,1.9-16.98,5.7-3.99,3.8-5.98,9.07-5.98,15.81s2.01,12.03,6.03,15.86c4.02,3.83,9.66,5.75,16.92,5.75,5.12,0,9.72-.6,13.77-1.81,4.06-1.21,7.83-3.12,11.32-5.75v17.78c-4.7,3.19-10.36,5.29-16.98,6.28Z"/>
        <path class="cls-8" d="M1269.45,682.75h18.58l29.79,74.41h-19.32l-5.98-15.33h-27.54l-5.98,15.33h-19.43l29.89-74.41ZM1287.81,727.35l-9.08-25.02-9.18,25.02h18.26Z"/>
        <path class="cls-8" d="M1340.66,757.43c-4.63-.89-8.43-2.11-11.42-3.67v-16.93c3.84,1.99,7.85,3.48,12.01,4.47,4.16,1,8.13,1.49,11.9,1.49,3.49,0,6.12-.53,7.9-1.6,1.78-1.06,2.67-2.59,2.67-4.58,0-1.49-.48-2.78-1.44-3.89-.96-1.1-2.37-2.11-4.22-3.03-1.85-.92-4.73-2.2-8.65-3.83-6.9-2.91-11.92-6.14-15.05-9.69-3.13-3.55-4.7-7.91-4.7-13.09,0-4.26,1.19-8.05,3.58-11.39,2.38-3.33,5.71-5.92,9.98-7.77,4.27-1.84,9.18-2.77,14.73-2.77,4.55,0,8.61.36,12.17,1.06,3.56.71,6.97,1.85,10.25,3.41v16.5c-6.26-3.26-12.56-4.9-18.9-4.9-3.42,0-6.14.55-8.17,1.65-2.03,1.1-3.04,2.68-3.04,4.74s1.03,3.73,3.1,5c2.06,1.28,5.87,3.02,11.42,5.22,5.05,2.06,8.99,4.08,11.8,6.07,2.81,1.99,4.86,4.29,6.14,6.92,1.28,2.63,1.92,5.96,1.92,10.01,0,6.88-2.51,12.26-7.53,16.13-5.02,3.87-12.51,5.8-22.47,5.8-4.7,0-9.36-.44-13.99-1.33Z"/>
        <path class="cls-8" d="M1450.2,682.75h52.96v15.86h-34.06v13.95h24.88v14.8h-24.88v13.95h34.06v15.86h-52.96v-74.41Z"/>
        <path class="cls-8" d="M1577.99,757.43c-4.63-.89-8.43-2.11-11.42-3.67v-16.93c3.84,1.99,7.85,3.48,12.01,4.47,4.16,1,8.13,1.49,11.9,1.49,3.49,0,6.12-.53,7.9-1.6,1.78-1.06,2.67-2.59,2.67-4.58,0-1.49-.48-2.78-1.44-3.89-.96-1.1-2.37-2.11-4.22-3.03-1.85-.92-4.73-2.2-8.65-3.83-6.9-2.91-11.92-6.14-15.05-9.69-3.13-3.55-4.7-7.91-4.7-13.09,0-4.26,1.19-8.05,3.58-11.39,2.38-3.33,5.71-5.92,9.98-7.77,4.27-1.84,9.18-2.77,14.73-2.77,4.55,0,8.61.36,12.17,1.06,3.56.71,6.97,1.85,10.25,3.41v16.5c-6.26-3.26-12.56-4.9-18.9-4.9-3.42,0-6.14.55-8.17,1.65-2.03,1.1-3.04,2.68-3.04,4.74s1.03,3.73,3.1,5c2.06,1.28,5.87,3.02,11.42,5.22,5.05,2.06,8.99,4.08,11.8,6.07,2.81,1.99,4.86,4.29,6.14,6.92,1.28,2.63,1.92,5.96,1.92,10.01,0,6.88-2.51,12.26-7.53,16.13-5.02,3.87-12.51,5.8-22.47,5.8-4.7,0-9.36-.44-13.99-1.33Z"/>
        <path class="cls-8" d="M1640.34,682.75h52.96v15.86h-34.06v13.95h24.88v14.8h-24.88v13.95h34.06v15.86h-52.96v-74.41Z"/>
        <path class="cls-8" d="M1711.66,682.75h33.52c8.75,0,15.6,2.2,20.55,6.6,4.95,4.4,7.42,10.72,7.42,18.95,0,5.54-1.21,10.26-3.63,14.16-2.42,3.9-5.84,6.81-10.25,8.73l13.24,25.97h-19.43l-11.85-23.31h-10.68v23.31h-18.9v-74.41ZM1741.87,717.99c3.77,0,6.69-.73,8.75-2.18,2.06-1.45,3.1-3.96,3.1-7.5s-1.01-6.23-3.04-7.61c-2.03-1.38-4.96-2.08-8.81-2.08h-11.32v19.37h11.32Z"/>
        <path class="cls-8" d="M1782.45,682.75h20.18l19,49.5,19-49.5h20.07l-29.79,74.41h-18.58l-29.89-74.41Z"/>
        <path class="cls-8" d="M1879.07,682.75h18.9v74.41h-18.9v-74.41Z"/>
        <path class="cls-8" d="M1966.83,758.12l-1.6,3.94c3.13.5,5.5,1.54,7.1,3.14s2.4,3.92,2.4,6.97c0,3.76-1.53,6.6-4.59,8.52-3.06,1.92-7.22,2.87-12.49,2.87-2.42,0-4.75-.14-6.99-.43-2.24-.28-3.93-.64-5.07-1.06v-9.05c1.85.99,4.02,1.49,6.51,1.49,1.71,0,3.02-.32,3.95-.96.92-.64,1.39-1.53,1.39-2.66,0-1.35-.8-2.4-2.4-3.14s-4.29-1.12-8.06-1.12l3.2-8.3c-6.9-.85-12.9-2.94-17.99-6.28-5.09-3.33-9-7.73-11.74-13.2-2.74-5.46-4.11-11.74-4.11-18.84,0-7.88,1.67-14.74,5.02-20.6,3.34-5.85,8.1-10.36,14.25-13.52,6.16-3.16,13.29-4.74,21.41-4.74,5.34,0,10.11.53,14.31,1.6,4.2,1.06,8.08,2.73,11.64,5v17.88c-3.13-2.48-6.67-4.29-10.62-5.43-3.95-1.13-8.49-1.7-13.61-1.7-7.33,0-12.99,1.9-16.98,5.7-3.99,3.8-5.98,9.07-5.98,15.81s2.01,12.03,6.03,15.86c4.02,3.83,9.66,5.75,16.92,5.75,5.12,0,9.72-.6,13.77-1.81,4.06-1.21,7.83-3.12,11.32-5.75v17.78c-4.7,3.19-10.36,5.29-16.98,6.28Z"/>
        <path class="cls-8" d="M2017.06,753.86c-6.09-3.26-10.89-7.82-14.41-13.68-3.52-5.86-5.29-12.58-5.29-20.17s1.76-14.33,5.29-20.23c3.52-5.89,8.33-10.47,14.41-13.73,6.09-3.26,12.9-4.9,20.45-4.9s14.25,1.63,20.34,4.9c6.09,3.27,10.87,7.84,14.36,13.73,3.49,5.89,5.23,12.63,5.23,20.23s-1.75,14.32-5.23,20.17c-3.49,5.85-8.27,10.42-14.36,13.68-6.09,3.26-12.87,4.9-20.34,4.9s-14.36-1.63-20.45-4.9ZM2047.86,738.53c3.13-1.7,5.62-4.15,7.47-7.34,1.85-3.19,2.78-6.92,2.78-11.18s-.91-7.97-2.72-11.12c-1.82-3.16-4.29-5.61-7.42-7.34-3.13-1.74-6.62-2.61-10.46-2.61s-7.44.87-10.57,2.61c-3.13,1.74-5.61,4.19-7.42,7.34-1.82,3.16-2.72,6.87-2.72,11.12s.91,7.98,2.72,11.18c1.81,3.19,4.31,5.64,7.47,7.34s6.67,2.55,10.52,2.55,7.22-.85,10.36-2.55Z"/>
        <path class="cls-8" d="M2102.42,757.43c-4.63-.89-8.43-2.11-11.42-3.67v-16.93c3.84,1.99,7.85,3.48,12.01,4.47,4.16,1,8.13,1.49,11.9,1.49,3.49,0,6.12-.53,7.9-1.6,1.78-1.06,2.67-2.59,2.67-4.58,0-1.49-.48-2.78-1.44-3.89-.96-1.1-2.37-2.11-4.22-3.03-1.85-.92-4.73-2.2-8.65-3.83-6.9-2.91-11.92-6.14-15.05-9.69-3.13-3.55-4.7-7.91-4.7-13.09,0-4.26,1.19-8.05,3.58-11.39,2.38-3.33,5.71-5.92,9.98-7.77,4.27-1.84,9.18-2.77,14.73-2.77,4.55,0,8.61.36,12.17,1.06,3.56.71,6.97,1.85,10.25,3.41v16.5c-6.26-3.26-12.56-4.9-18.9-4.9-3.42,0-6.14.55-8.17,1.65-2.03,1.1-3.04,2.68-3.04,4.74s1.03,3.73,3.1,5c2.06,1.28,5.87,3.02,11.42,5.22,5.05,2.06,8.99,4.08,11.8,6.07,2.81,1.99,4.86,4.29,6.14,6.92,1.28,2.63,1.92,5.96,1.92,10.01,0,6.88-2.51,12.26-7.53,16.13-5.02,3.87-12.51,5.8-22.47,5.8-4.7,0-9.36-.44-13.99-1.33Z"/>
      </g>
    </g>
  </g>
</svg>