<?xml version="1.0" encoding="utf-8"?>
<svg id="Camada_2" data-name="Camada 2" xmlns="http://www.w3.org/2000/svg" viewBox="0 186 2097 702">
  <defs>
    <style>.cls-1, .cls-2, .cls-3 { fill: rgb(21, 88, 121); }
.cls-4, .cls-5, .cls-6, .cls-7 { fill: rgb(255, 255, 255); }
.cls-4, .cls-5, .cls-2 { stroke-linecap: round; stroke-linejoin: round; }
.cls-4, .cls-5, .cls-3 { stroke: rgb(255, 255, 255); }
.cls-4, .cls-2 { stroke-width: 5.62px; }
.cls-5 { stroke-width: 4.42px; }
.cls-8 { fill: rgb(193, 39, 45); }
.cls-2 { stroke: rgb(9, 27, 137); }
.cls-3 { stroke-miterlimit: 10; stroke-width: 1.05px; }
.cls-7 { font-family: Prompt-Medium, Prompt; font-size: 62.79px; font-weight: 500; }</style>
  </defs>
  <g id="Camada_1-2" data-name="Camada 1" transform="matrix(0.998907, 0, 0, 1, 0.142553, 0)">
    <path class="cls-8" d="M 399.924 855.574 L 581.644 759.805 C 596.593 751.924 609.044 740.695 617.553 727.129 C 623.79 717.187 629.422 704.534 631.448 689.537 C 631.492 689.21 631.516 688.884 631.516 688.552 L 631.516 266.462 C 631.516 263.209 627.525 261.002 624.146 259.833 C 437.369 195.22 177.179 242.402 135.602 259.055 C 132.443 260.319 130.405 263.126 130.405 266.23 L 130.405 688.32 C 130.405 688.646 130.423 688.979 130.472 689.305 C 132.492 704.309 138.13 716.956 144.368 726.897 C 152.876 740.458 165.328 751.692 180.276 759.574 L 361.996 855.349 C 373.75 861.539 388.288 861.604 400.102 855.509" style=""/>
    <path class="cls-1" d="M 399.924 813.778 L 581.644 729.324 C 596.593 722.374 609.044 712.469 617.553 700.51 C 623.79 691.744 629.422 680.587 631.448 667.358 C 631.492 667.073 631.516 666.782 631.516 666.491 L 631.516 294.297 C 631.516 291.43 627.525 289.477 624.146 288.451 C 437.369 231.476 177.179 273.079 135.602 287.762 C 132.443 288.878 130.405 291.353 130.405 294.089 L 130.405 666.29 C 130.405 666.58 130.423 666.871 130.472 667.156 C 132.492 680.385 138.13 691.536 144.368 700.308 C 152.876 712.267 165.328 722.173 180.276 729.123 L 361.996 813.576 C 373.75 819.033 388.288 819.092 400.102 813.718" style=""/>
    <path class="cls-4" d="M 523.192 604.715 C 508.378 627.903 496.055 635.689 496.055 635.689 L 450.365 609.184 L 459.186 595.314 C 470.933 595.967 475.695 589.83 481.768 580.328 C 487.84 570.827 491.734 563.141 485.325 554.203 L 494.237 540.185 L 538.862 566.898 C 538.862 566.898 535.82 584.94 523.192 604.709 L 523.192 604.715 Z M 494.892 588.21 C 492.419 592.074 493.649 597.154 497.641 599.546 C 501.626 601.944 506.866 600.751 509.333 596.881 C 511.806 593.017 510.575 587.937 506.584 585.546 C 502.599 583.148 497.359 584.341 494.892 588.21 Z" style=""/>
    <path class="cls-4" d="M 554.753 576.127 C 554.753 576.127 551.711 594.169 539.082 613.938 C 524.269 637.125 511.947 644.912 511.947 644.912 L 504.84 641.114 C 504.84 641.114 517.162 633.321 531.976 610.14 C 544.604 590.371 548.16 571.533 548.16 571.533 L 554.759 576.132 L 554.753 576.127 Z" style=""/>
    <circle class="cls-2" cx="652.578" cy="624.785" r="5.91" style="" transform="matrix(0.612141, 0, 0, 0.593489, 102.63961, 221.745041)"/>
    <path class="cls-6" d="M 380.954 314.707 C 263.105 314.707 167.568 407.333 167.568 521.591 C 167.568 635.849 263.105 728.476 380.954 728.476 C 498.804 728.476 594.34 635.849 594.34 521.591 C 594.34 407.333 498.804 314.707 380.954 314.707 Z M 178.954 521.591 C 178.954 413.428 269.392 325.746 380.954 325.746 C 492.517 325.746 582.955 413.428 582.955 521.591 C 582.955 574.97 483.103 626.977 383.428 627.665 C 281.132 628.378 178.948 576.37 178.948 521.591 L 178.954 521.591 Z" style=""/>
    <g transform="matrix(0.612141, 0, 0, 0.593489, 130.405365, 226.79248)" style="">
      <path class="cls-6" d="M29.03,333.35l15.8-32.37c4-8.19,5.28-10.15,7.95-12.15,4.23-3.2,8.99-2.84,17.23,1.18,8.3,4.05,11.9,7.62,12.42,12.19.36,3.24-.58,6.32-4.17,13.68l-10.1,20.69,10.72,5.23-6.26,12.82-43.59-21.28ZM66.71,312.69c2.57-5.27,2.14-7.36-1.98-9.37-5.23-2.55-7.02-1.86-9.72,3.66l-9.14,18.72,11.7,5.71,9.14-18.72Z"/>
      <path class="cls-6" d="M90.84,229.26l8.95,6.37-22.07,31.01,6.81,4.85,20.8-29.23,7.82,5.57-20.8,29.23,6.99,4.98,22.35-31.42,8.95,6.37-30.54,42.93-39.52-28.12,30.25-42.52Z"/>
      <path class="cls-6" d="M162.47,198.64c4.94,5.04,6.48,6.89,7.32,9.13,1.63,4.23.32,8.31-4.52,13.86-1.84,2.25-5.79,6.29-12.44,12.93-9.59,9.58-13.16,12.21-17.65,13.1-5.46,1.13-10-1.52-20.18-11.71-9.04-9.06-11.28-13.3-9.84-18.85,1.2-4.79,3.94-8.45,13.28-17.78,12.44-12.42,15.4-14.86,19.69-16.26,4.09-1.3,8.37.48,13.4,5.53l1.13,1.13-9.69,9.68c-3.95-3.56-5.01-3.12-13.8,5.66-8.3,8.28-9.59,9.99-9.71,12.37-.07,2.33,1.07,3.97,6.62,9.53,8.22,8.23,9.59,8.1,19.33-1.63,7.55-7.53,8.59-8.68,9.38-10.7.83-2.06.3-3.69-2.16-6.17l9.84-9.83ZM164.52,232.97l1.44,12.44-5.85,2.14-4.98-11.98,9.39-2.59Z"/>
      <path class="cls-6" d="M169.16,156.27l15.8-10.92,48.78,25.27-12.9,8.91-8.75-4.47-24.99,17.26,1.2,9.69-13.36,9.23-5.78-54.97ZM202.22,169.59l-19.36-10.14,2.74,21.62,16.62-11.48Z"/>
      <path class="cls-6" d="M240.92,150.99c1.5,2.99,2.15,3.58,3.97,3.48,1.15-.04,4.93-1.43,9.05-3.29,15.13-6.82,16.72-8.1,15.08-11.75-.81-1.79-2.24-2.74-3.8-2.59q-1.63.17-8.42,3.16l-11.85,5.34c-7.92,3.57-11.41,4.59-14.84,4.38-3.84-.26-6.84-3.14-9.56-9.17-3.59-7.96-2.92-12.32,2.57-16.64,3.06-2.5,7.93-5.09,17.33-9.33,15.06-6.79,18.72-7.97,22.74-7.3,3.89.72,6.08,3,9.07,9.63l-12.75,5.75c-1.73-3.85-3.26-3.8-11.69,0-4.18,1.89-9.73,4.55-11.73,5.61-3.36,1.83-4.1,3.28-2.96,5.8.84,1.86,2.28,2.64,4.35,2.27.86-.15,1.15-.2,5.43-2.05l12.17-5.49c1.16-.52,7.04-2.94,9.29-3.79,8.36-3.29,13.25-1.03,17.25,7.85,3.68,8.15,2.97,12.78-2.71,17.02-2.89,2.18-9.08,5.45-18.42,9.66-14.87,6.71-18.3,7.86-23,7.58-3.24-.14-6.11-2.91-8.48-8.14-.18-.4-.57-1.26-.92-2.22l12.81-5.78Z"/>
      <path class="cls-6" d="M356.39,81.17l2.11,10.78-37.36,7.32,1.61,8.21,35.21-6.9,1.84,9.42-35.21,6.9,1.65,8.42,37.84-7.41,2.11,10.78-51.7,10.13-9.32-47.6,51.22-10.04Z"/>
      <path class="cls-6" d="M407.14,111.39c.03,3.35.35,4.16,2.03,4.87,1.04.47,5.06.9,9.57,1.05,16.58.56,18.58.12,18.71-3.88.07-1.96-.8-3.45-2.27-4.01q-1.54-.56-8.94-.88l-12.99-.44c-8.68-.29-12.26-.92-15.24-2.62-3.33-1.93-4.75-5.84-4.53-12.45.29-8.72,2.82-12.35,9.65-13.79,3.85-.89,9.36-1.07,19.67-.72,16.51.56,20.31,1.12,23.62,3.49,3.17,2.36,4.13,5.38,3.88,12.65l-13.97-.47c.14-4.22-1.25-4.84-10.5-5.16-4.59-.15-10.73-.22-13-.15-3.82.16-5.12,1.14-5.22,3.9-.07,2.04.88,3.38,2.91,3.95.84.25,1.12.33,5.77.56l13.34.45c1.27.04,7.61.48,10.01.7,8.95.74,12.34,4.93,12.01,14.67-.3,8.94-2.97,12.78-9.94,14.07-3.56.68-10.56.88-20.79.54-16.3-.55-19.89-1.03-23.98-3.35-2.84-1.55-4.2-5.31-4.01-11.05.01-.44.05-1.38.15-2.4l14.04.47Z"/>
      <path class="cls-6" d="M517.16,92.12l-2.18,10.76-37.31-7.56-1.66,8.2,35.16,7.12-1.91,9.41-35.16-7.12-1.7,8.41,37.79,7.66-2.18,10.76-51.63-10.46,9.63-47.54,51.15,10.36Z"/>
      <path class="cls-6" d="M530.24,95.71l37.85,14.71c7.77,3.02,10.93,5.03,12.58,8.17,1.75,3.1,1.43,7.42-.94,13.52-3.27,8.4-6.53,10.96-12.63,10.07,5.09,3.07,5.82,6.08,3.02,12.88l-2.77,7.12-13.56-5.27,2.19-5.63c1.83-4.91.91-6.43-5.13-8.63l-20.47-7.96-4.43,11.39-13.3-5.17,17.58-45.21ZM555.55,131.77c6.45,2.51,8.02,2.18,9.76-2.29,1.13-2.91,1.34-4.24.86-5.52-.57-1.47-1.61-2.11-5.62-3.67l-21.33-8.29-4.53,11.66,20.87,8.11Z"/>
      <path class="cls-6" d="M594.03,120.95l13.47,8.29-3.38,40.95,35.38-21.27,13.59,8.36-47.6,27.67-15.46-9.51,3.99-54.49Z"/>
      <path class="cls-6" d="M659.15,163.58l11.2,8.95-30.27,37.9-11.2-8.95,30.27-37.9Z"/>
      <path class="cls-6" d="M700.02,242.71c-5.06,4.91-6.92,6.45-9.16,7.28-4.24,1.61-8.32.28-13.84-4.58-2.24-1.85-6.27-5.82-12.88-12.49-9.54-9.64-12.15-13.21-13.03-17.71-1.11-5.46,1.57-10,11.8-20.13,9.1-9,13.35-11.22,18.89-9.76,4.79,1.22,8.43,3.97,17.73,13.36,12.37,12.5,14.8,15.46,16.18,19.76,1.29,4.09-.52,8.36-5.58,13.38l-1.14,1.13-9.64-9.74c3.57-3.94,3.14-5-5.61-13.83-8.25-8.33-9.94-9.63-12.32-9.76-2.33-.08-3.97,1.05-9.55,6.58-8.27,8.19-8.14,9.55,1.54,19.34,7.5,7.58,8.65,8.63,10.66,9.42,2.06.84,3.69.32,6.17-2.14l9.79,9.89ZM665.68,244.61l-12.44,1.39-2.11-5.86,12.01-4.93,2.55,9.4Z"/>
      <path class="cls-6" d="M759.38,274.96c2.94,6.79,1.74,11.88-4.14,17.07-1.47,1.34-4.64,3.66-9.51,6.97-9.69,6.58-14.27,8.24-19.36,6.83-3.63-.95-6.82-3.56-10.91-9.07-1.55-2.02-5.14-7.18-7.72-10.98-6.31-9.29-9.34-14.14-10.45-16.8-2.15-4.85-2.18-8.51-.22-11.97,1.92-3.52,4.63-5.87,13.41-11.84,6.74-4.58,8.5-5.6,11.69-6.74,5.03-1.79,8.86-1.07,13.16,2.42,3.19,2.62,5.85,6.02,12.83,16.3,7.62,11.21,9.84,14.74,11.23,17.81ZM728.97,253.11c-2.34-.72-4.64.16-10.41,4.08-5.9,4-7.74,5.94-8.02,8.26-.25,2.48.82,4.57,6.89,13.5,6.95,10.22,8.73,12.08,11.57,12.12,2.2.13,4.44-.97,9.8-4.6,10.11-6.86,10.11-7.12.19-21.72-5.91-8.7-7.84-10.89-10.02-11.64Z"/>
      <path class="cls-6" d="M748.18,323.13c-3.01,1.47-3.6,2.12-3.51,3.93.03,1.15,1.38,4.95,3.2,9.08,6.68,15.19,7.94,16.8,11.6,15.19,1.8-.79,2.76-2.22,2.63-3.78q-.16-1.63-3.08-8.44l-5.23-11.9c-3.49-7.95-4.48-11.45-4.23-14.88.3-3.83,3.2-6.81,9.26-9.47,7.99-3.51,12.35-2.8,16.61,2.73,2.47,3.08,5.02,7.98,9.16,17.42,6.65,15.13,7.78,18.8,7.08,22.81-.76,3.88-3.06,6.05-9.72,8.98l-5.63-12.8c3.86-1.7,3.83-3.22.1-11.69-1.85-4.2-4.45-9.77-5.49-11.78-1.8-3.37-3.24-4.13-5.77-3.02-1.86.82-2.66,2.25-2.31,4.33.14.86.19,1.15,2,5.45l5.37,12.22c.51,1.16,2.87,7.07,3.7,9.33,3.21,8.39.9,13.26-8.02,17.18-8.19,3.6-12.81,2.85-16.99-2.87-2.15-2.91-5.37-9.14-9.48-18.51-6.56-14.93-7.68-18.38-7.36-23.07.17-3.24,2.97-6.08,8.22-8.4.4-.18,1.26-.56,2.23-.9l5.65,12.87Z"/>
    </g>
    <g transform="matrix(0.612141, 0, 0, 0.593489, 130.405365, 226.79248)" style="">
      <path class="cls-8" d="M239.28,694.42h42.69c11.15,0,19.87,2.81,26.17,8.43,6.3,5.62,9.45,13.69,9.45,24.2,0,7.07-1.54,13.1-4.62,18.08-3.08,4.99-7.43,8.7-13.05,11.15l16.86,33.18h-24.75l-15.09-29.78h-13.6v29.78h-24.07v-95.04ZM277.76,739.43c4.8,0,8.52-.93,11.15-2.79,2.63-1.86,3.94-5.05,3.94-9.59s-1.29-7.95-3.87-9.72c-2.58-1.77-6.32-2.65-11.22-2.65h-14.41v24.75h14.41Z"/>
      <path class="cls-8" d="M326.84,694.42h67.44v20.26h-43.37v17.81h31.68v18.9h-31.68v17.81h43.37v20.26h-67.44v-95.04Z"/>
      <path class="cls-8" d="M423.31,785.52c-7.84-3.99-13.89-9.72-18.15-17.2-4.26-7.48-6.39-16.25-6.39-26.31s2.13-18.83,6.39-26.31c4.26-7.48,10.31-13.23,18.15-17.27,7.84-4.03,16.93-6.05,27.26-6.05,6.8,0,12.87.68,18.22,2.04,5.35,1.36,10.29,3.49,14.82,6.39v22.84c-3.99-3.17-8.5-5.48-13.53-6.93-5.03-1.45-10.81-2.18-17.33-2.18-9.34,0-16.54,2.43-21.62,7.27-5.08,4.85-7.61,11.58-7.61,20.19s2.56,15.36,7.68,20.26c5.12,4.89,12.3,7.34,21.55,7.34,6.53,0,12.37-.77,17.54-2.31,5.17-1.54,9.97-3.99,14.41-7.34v22.71c-8.61,5.89-19.99,8.84-34.13,8.84-10.33,0-19.42-1.99-27.26-5.98Z"/>
      <path class="cls-8" d="M493.94,694.42h24.07v36.71h37.25v-36.71h24.07v95.04h-24.07v-38.34h-37.25v38.34h-24.07v-95.04Z"/>
    </g>
    <text class="cls-7" transform="matrix(0.508806, 0.296758, -0.315551, 0.508559, 236.226196, 732.124817)" style="white-space: pre;"><tspan x="0" y="0">C</tspan></text>
    <text class="cls-7" transform="matrix(0.548974, 0.219376, -0.233269, 0.548708, 267.733093, 749.727661)" style="white-space: pre;"><tspan x="0" y="0">A</tspan></text>
    <text class="cls-7" transform="matrix(0.577828, 0.132534, -0.140927, 0.577547, 303.788208, 763.38385)" style="white-space: pre;"><tspan x="0" y="0">M</tspan></text>
    <text class="cls-7" transform="matrix(0.589924, 0.065469, -0.069615, 0.589639, 344.348694, 771.4375)" style="white-space: pre;"><tspan x="0" y="0">I</tspan></text>
    <text class="cls-7" transform="matrix(0.593707, 0.008841, -0.009401, 0.593419, 363.276123, 773.390076)" style="white-space: pre;"><tspan x="0" y="0">N</tspan></text>
    <text class="cls-7" transform="matrix(0.588656, -0.075441, 0.080218, 0.588371, 400.071899, 773.093323)" style="white-space: pre;"><tspan x="0" y="0">H</tspan></text>
    <text class="cls-7" transform="matrix(0.56959, -0.162636, 0.172936, 0.569314, 437.228851, 767.656982)" style="white-space: pre;"><tspan x="0" y="0">Õ</tspan></text>
    <text class="cls-7" transform="matrix(0.539104, -0.24129, 0.25657, 0.538843, 476.699738, 755.235291)" style="white-space: pre;"><tspan x="0" y="0">E</tspan></text>
    <text class="cls-7" transform="matrix(0.503221, -0.305577, 0.324928, 0.502978, 504.986755, 741.875793)" style="white-space: pre;"><tspan x="0" y="0">S</tspan></text>
    <path class="cls-5" d="M 365.688 400.65 C 365.688 400.65 370.04 430.829 370.101 440.918 C 370.169 452.2 365.688 485.988 365.688 485.988 L 390.951 485.988 C 390.951 485.988 385.76 452.206 385.833 440.918 C 385.901 430.829 390.951 400.65 390.951 400.65 L 365.688 400.65 Z" style=""/>
    <path class="cls-3" d="M 373.1 402.822 C 373.1 402.822 374.876 432.235 374.9 442.064 C 374.924 453.061 373.1 485.988 373.1 485.988 L 383.396 485.988 C 383.396 485.988 381.285 453.067 381.315 442.064 C 381.346 432.229 383.396 402.822 383.396 402.822 L 373.1 402.822 Z" style=""/>
    <path class="cls-4" d="M 378.481 354.898 C 350.348 354.898 337.033 360.951 337.033 360.951 L 336.206 412.567 L 353.01 412.602 C 358.624 402.579 366.514 401.878 378.047 401.878 C 389.579 401.878 398.364 402.715 402.826 412.703 L 419.813 412.739 L 419.886 361.889 C 419.886 361.889 402.465 354.898 378.481 354.898 Z M 378.047 386.917 C 373.358 386.917 369.55 383.231 369.55 378.679 C 369.55 374.126 373.352 370.441 378.047 370.441 C 382.742 370.441 386.543 374.126 386.543 378.679 C 386.543 383.231 382.742 386.917 378.047 386.917 Z" style=""/>
    <path class="cls-4" d="M 420.168 343.942 C 420.168 343.942 402.746 336.951 378.763 336.951 C 350.629 336.951 337.315 343.004 337.315 343.004 L 336.905 350.862 C 336.905 350.862 350.225 344.809 378.352 344.809 C 402.336 344.809 420.732 351.8 420.732 351.8 L 420.174 343.942 L 420.168 343.942 Z" style=""/>
    <circle class="cls-2" cx="449.908" cy="264.425" r="5.91" style="" transform="matrix(0.612141, 0, 0, 0.593489, 102.63961, 221.745041)"/>
    <path class="cls-5" d="M 280.086 589.991 C 280.086 589.991 304.259 570.507 313.068 565.147 C 322.93 559.153 354.914 545.051 354.914 545.051 L 341.606 524.226 C 341.606 524.226 314.721 546.292 304.78 552.179 C 295.898 557.438 266.778 569.171 266.778 569.171 L 280.086 589.997 L 280.086 589.991 Z" style=""/>
    <path class="cls-3" d="M 278.084 582.738 C 278.084 582.738 302.943 565.788 311.544 560.589 C 321.173 554.773 351.002 538.939 351.002 538.939 L 345.579 530.452 C 345.579 530.452 317.824 549.533 308.164 555.301 C 299.528 560.459 272.66 574.251 272.66 574.251 L 278.084 582.738 Z" style=""/>
    <path class="cls-4" d="M 233.227 603.54 C 248.04 626.728 260.362 634.514 260.362 634.514 L 306.053 608.009 L 297.232 594.139 C 285.485 594.792 280.722 588.655 274.65 579.154 C 268.577 569.652 264.684 561.966 271.094 553.029 L 262.18 539.01 L 217.555 565.723 C 217.555 565.723 220.598 583.765 233.227 603.534 L 233.227 603.54 Z M 261.532 587.035 C 264.004 590.899 262.774 595.979 258.783 598.371 C 254.792 600.763 249.558 599.575 247.092 595.706 C 244.618 591.842 245.848 586.762 249.84 584.37 C 253.825 581.972 259.065 583.165 261.532 587.035 Z" style=""/>
    <path class="cls-4" d="M 201.67 574.946 C 201.67 574.946 204.712 592.988 217.341 612.757 C 232.155 635.944 244.478 643.731 244.478 643.731 L 251.585 639.933 C 251.585 639.933 239.262 632.14 224.448 608.959 C 211.82 589.189 208.263 570.352 208.263 570.352 L 201.664 574.951 L 201.67 574.946 Z" style=""/>
    <circle class="cls-2" cx="247.778" cy="622.805" r="5.91" style="" transform="matrix(0.612141, 0, 0, 0.593489, 102.63961, 221.745041)"/>
    <path class="cls-5" d="M 476.332 591.166 C 476.332 591.166 452.158 571.681 443.35 566.323 C 433.489 560.328 401.504 546.227 401.504 546.227 L 414.812 525.402 C 414.812 525.402 441.697 547.467 451.638 553.355 C 460.521 558.613 489.64 570.346 489.64 570.346 L 476.332 591.172 L 476.332 591.166 Z" style=""/>
    <path class="cls-3" d="M 478.334 583.914 C 478.334 583.914 453.475 566.963 444.874 561.764 C 435.245 555.949 405.416 540.114 405.416 540.114 L 410.839 531.627 C 410.839 531.627 438.593 550.707 448.253 556.476 C 456.891 561.634 483.757 575.426 483.757 575.426 L 478.334 583.914 Z" style=""/>
    <g transform="matrix(0.612141, 0, 0, 0.593489, 130.405365, 226.79248)" style="">
      <path class="cls-6" d="M375.94,548.4c-2.55,0-4.93-1.37-6.2-3.58l-29.18-50.54c-1.27-2.21-1.27-4.95,0-7.16l29.18-50.54c1.28-2.21,3.65-3.58,6.2-3.58h58.36c2.55,0,4.93,1.37,6.2,3.58l29.18,50.54c1.27,2.21,1.27,4.95,0,7.16l-29.18,50.54c-1.28,2.21-3.65,3.58-6.2,3.58h-58.36ZM404.99,455.67c-19.31,0-35.02,15.71-35.02,35.02s15.71,35.02,35.02,35.02,35.02-15.71,35.02-35.02-15.71-35.02-35.02-35.02Z"/>
      <path class="cls-6" d="M434.31,435.91c1.51,0,2.92.81,3.67,2.12l29.18,50.54c.76,1.31.76,2.93,0,4.24l-29.18,50.54c-.76,1.31-2.16,2.12-3.67,2.12h-58.36c-1.51,0-2.92-.81-3.67-2.12l-29.18-50.54c-.76-1.31-.76-2.93,0-4.24l29.18-50.54c.76-1.31,2.16-2.12,3.67-2.12h58.36M404.99,528.63c20.92,0,37.94-17.02,37.94-37.94s-17.02-37.94-37.94-37.94-37.94,17.02-37.94,37.94,17.02,37.94,37.94,37.94M434.31,430.07h-58.36c-3.6,0-6.93,1.92-8.73,5.04l-29.18,50.54c-1.8,3.12-1.8,6.96,0,10.08l29.18,50.54c1.8,3.12,5.13,5.04,8.73,5.04h58.36c3.6,0,6.93-1.92,8.73-5.04l29.18-50.54c1.8-3.12,1.8-6.96,0-10.08l-29.18-50.54c-1.8-3.12-5.13-5.04-8.73-5.04h0ZM404.99,522.79c-17.73,0-32.1-14.37-32.1-32.1s14.37-32.1,32.1-32.1,32.1,14.37,32.1,32.1-14.37,32.1-32.1,32.1h0Z"/>
    </g>
    <g style="" transform="matrix(1.178775, 0, 0, 1.218956, -397.250061, -102.387405)">
      <g transform="matrix(1, 0, 0, 1, -53.86314, 113.396088)">
        <path class="cls-8" d="M1007.34,166.87h143.35c37.43,0,66.72,9.44,87.88,28.31,21.15,18.87,31.73,45.96,31.73,81.26,0,23.74-5.18,43.98-15.52,60.72-10.35,16.74-24.96,29.22-43.83,37.43l56.61,111.39h-83.09l-50.67-99.98h-45.65v99.98h-80.8V166.87ZM1136.54,317.97c16.13,0,28.6-3.12,37.43-9.36,8.83-6.23,13.24-16.96,13.24-32.18s-4.34-26.7-13.01-32.64c-8.68-5.94-21.23-8.9-37.66-8.9h-48.39v83.09h48.39Z"/>
        <path class="cls-8" d="M1301.33,166.87h226.43v68.02h-145.63v59.8h106.37v63.46h-106.37v59.8h145.63v68.02h-226.43V166.87Z"/>
        <path class="cls-8" d="M1625.23,472.73c-26.33-13.39-46.64-32.64-60.95-57.75-14.31-25.11-21.46-54.55-21.46-88.34s7.15-63.23,21.46-88.34c14.3-25.11,34.62-44.43,60.95-57.98,26.32-13.54,56.84-20.31,91.53-20.31,22.83,0,43.21,2.28,61.17,6.85,17.95,4.56,34.54,11.72,49.76,21.46v76.7c-13.4-10.65-28.53-18.41-45.42-23.28-16.89-4.86-36.29-7.3-58.2-7.3-31.35,0-55.54,8.15-72.59,24.43-17.05,16.28-25.56,38.88-25.56,67.79s8.6,51.59,25.79,68.02c17.19,16.43,41.31,24.65,72.36,24.65,21.91,0,41.54-2.58,58.89-7.76,17.35-5.17,33.48-13.39,48.39-24.65v76.24c-28.92,19.79-67.11,29.67-114.59,29.67-34.69,0-65.21-6.7-91.53-20.09Z"/>
        <path class="cls-8" d="M1862.38,166.87h80.8v123.26h125.08v-123.26h80.8v319.1h-80.8v-128.74h-125.08v128.74h-80.8V166.87Z"/>
      </g>
      <g transform="matrix(1, 0, 0, 1, -53.86314, 113.396088)">
        <path class="cls-1" d="M1038.87,645.09c-8.85-4.62-15.67-11.26-20.48-19.92-4.81-8.66-7.21-18.81-7.21-30.47s2.4-21.81,7.21-30.47c4.81-8.66,11.63-15.32,20.48-20,8.84-4.67,19.1-7.01,30.76-7.01,7.67,0,14.52.79,20.55,2.36,6.03,1.57,11.61,4.04,16.72,7.4v26.45c-4.5-3.67-9.59-6.35-15.26-8.03-5.68-1.68-12.19-2.52-19.56-2.52-10.53,0-18.66,2.81-24.39,8.42-5.73,5.62-8.59,13.41-8.59,23.38s2.89,17.79,8.67,23.46c5.78,5.67,13.88,8.5,24.31,8.5,7.36,0,13.96-.89,19.79-2.68,5.83-1.78,11.25-4.62,16.26-8.5v26.29c-9.72,6.82-22.55,10.23-38.5,10.23-11.66,0-21.91-2.31-30.76-6.93Z"/>
        <path class="cls-1" d="M1185.59,539.6h26.69l42.8,110.05h-27.76l-8.59-22.67h-39.58l-8.59,22.67h-27.92l42.95-110.05ZM1211.97,605.57l-13.04-37-13.19,37h26.23Z"/>
        <path class="cls-1" d="M1292.66,539.6h26.08l30.99,68.17,31.14-68.17h25.92v110.05h-25.31v-55.26l-25.62,55.26h-12.27l-25.46-55.26v55.26h-25.46v-110.05Z"/>
        <path class="cls-1" d="M1451.27,539.6h27.15v110.05h-27.15v-110.05Z"/>
        <path class="cls-1" d="M1522.9,539.6h26.84l39.42,65.5v-65.5h27.15v110.05h-26.69l-39.58-65.66v65.66h-27.15v-110.05Z"/>
        <path class="cls-1" d="M1660.8,539.6h27.15v42.51h42.03v-42.51h27.15v110.05h-27.15v-44.4h-42.03v44.4h-27.15v-110.05Z"/>
        <path class="cls-1" d="M1826.85,644.77c-8.74-4.83-15.65-11.57-20.71-20.23-5.06-8.66-7.59-18.6-7.59-29.84s2.53-21.2,7.59-29.92c5.06-8.71,11.96-15.48,20.71-20.31,8.74-4.83,18.53-7.24,29.38-7.24s20.48,2.42,29.22,7.24c8.74,4.83,15.62,11.6,20.63,20.31,5.01,8.71,7.52,18.68,7.52,29.92s-2.51,21.18-7.52,29.84c-5.01,8.66-11.89,15.4-20.63,20.23-8.74,4.83-18.48,7.24-29.22,7.24s-20.63-2.41-29.38-7.24ZM1824.94,512.68c3.58-4.41,8.95-6.61,16.11-6.61,2.25,0,4.5.31,6.75.94,2.25.63,5.16,1.63,8.74,2.99,3.07,1.26,5.73,2.23,7.98,2.91,2.25.68,4.5,1.02,6.75,1.02,6.44,0,11.81-2.62,16.11-7.87v20.15c-3.48,4.31-8.85,6.46-16.11,6.46-2.56,0-5.06-.34-7.52-1.02-2.45-.68-5.32-1.71-8.59-3.07-3.27-1.26-5.91-2.2-7.9-2.83s-4.07-.95-6.21-.95c-6.34,0-11.71,2.68-16.11,8.03v-20.15ZM1871.11,622.1c4.5-2.52,8.08-6.14,10.74-10.86,2.66-4.72,3.99-10.23,3.99-16.53s-1.3-11.78-3.91-16.45c-2.61-4.67-6.16-8.29-10.66-10.86-4.5-2.57-9.51-3.86-15.03-3.86s-10.69,1.29-15.19,3.86c-4.5,2.57-8.05,6.19-10.66,10.86-2.61,4.67-3.91,10.16-3.91,16.45s1.3,11.81,3.91,16.53c2.61,4.72,6.19,8.34,10.74,10.86,4.55,2.52,9.59,3.78,15.11,3.78s10.38-1.26,14.88-3.78Z"/>
        <path class="cls-1" d="M1955.01,539.6h76.08v23.46h-48.93v20.63h35.74v21.88h-35.74v20.62h48.93v23.46h-76.08v-110.05Z"/>
        <path class="cls-1" d="M2085.86,650.05c-6.65-1.31-12.12-3.12-16.41-5.43v-25.03c5.52,2.94,11.27,5.14,17.26,6.61,5.98,1.47,11.68,2.21,17.1,2.21,5.01,0,8.79-.79,11.35-2.36,2.55-1.57,3.83-3.83,3.83-6.77,0-2.2-.69-4.12-2.07-5.75-1.38-1.63-3.4-3.12-6.06-4.49-2.66-1.36-6.8-3.25-12.42-5.67-9.92-4.3-17.13-9.08-21.63-14.33-4.5-5.25-6.75-11.7-6.75-19.37,0-6.3,1.71-11.91,5.14-16.85,3.43-4.93,8.21-8.76,14.34-11.49,6.14-2.73,13.19-4.09,21.17-4.09,6.54,0,12.37.53,17.49,1.57,5.11,1.05,10.02,2.73,14.73,5.04v24.4c-9-4.83-18.05-7.24-27.15-7.24-4.91,0-8.82.81-11.73,2.44-2.92,1.63-4.37,3.96-4.37,7.01s1.48,5.51,4.45,7.4c2.96,1.89,8.44,4.46,16.41,7.71,7.26,3.05,12.91,6.04,16.95,8.97,4.04,2.94,6.98,6.35,8.82,10.23,1.84,3.88,2.76,8.82,2.76,14.8,0,10.18-3.6,18.13-10.81,23.85-7.21,5.72-17.97,8.58-32.29,8.58-6.75,0-13.45-.66-20.09-1.97Z"/>
      </g>
    </g>
  </g>
</svg>